<?xml version="1.0" standalone="no"?>
<!DOCTYPE svg PUBLIC "-//W3C//DTD SVG 20010904//EN"
 "http://www.w3.org/TR/2001/REC-SVG-20010904/DTD/svg10.dtd">
<svg version="1.0" xmlns="http://www.w3.org/2000/svg"
 width="32.000000pt" height="32.000000pt" viewBox="0 0 32.000000 32.000000"
 preserveAspectRatio="xMidYMid meet">

<g transform="translate(0.000000,32.000000) scale(0.100000,-0.100000)"
fill="#000000" stroke="none">
<path d="M2 188 l3 -133 43 -1 42 -1 -40 4 -40 4 0 105 0 104 150 0 150 0 0
-104 c0 -101 -1 -105 -22 -109 -20 -3 -20 -4 2 -3 l25 1 3 133 3 132 -161 0
-161 0 3 -132z m308 107 c0 -13 -23 -15 -150 -15 -127 0 -150 2 -150 15 0 13
23 15 150 15 127 0 150 -2 150 -15z"/>
<path d="M152 293 c27 -2 69 -2 96 0 26 2 4 3 -48 3 -52 0 -74 -1 -48 -3z"/>
<path d="M30 204 c0 -34 1 -35 33 -32 28 3 32 7 35 36 3 31 2 32 -32 32 -35 0
-36 -1 -36 -36z m60 1 c0 -20 -5 -25 -25 -25 -20 0 -25 5 -25 25 0 20 5 25 25
25 20 0 25 -5 25 -25z"/>
<path d="M118 233 c7 -3 16 -2 19 1 4 3 -2 6 -13 5 -11 0 -14 -3 -6 -6z"/>
<path d="M172 208 c3 -29 7 -33 36 -36 31 -3 32 -2 32 32 0 35 -1 36 -36 36
-34 0 -35 -1 -32 -32z m58 -4 c0 -21 -4 -25 -22 -22 -15 2 -24 11 -26 26 -3
18 1 22 22 22 21 0 26 -5 26 -26z"/>
<path d="M268 233 c7 -3 16 -2 19 1 4 3 -2 6 -13 5 -11 0 -14 -3 -6 -6z"/>
<path d="M258 213 c7 -3 16 -2 19 1 4 3 -2 6 -13 5 -11 0 -14 -3 -6 -6z"/>
<path d="M114 156 c-3 -8 4 -32 16 -55 20 -41 20 -41 0 -41 -33 0 -23 -26 19
-44 36 -17 41 -17 70 -2 36 19 38 30 11 74 -14 22 -27 32 -45 32 -17 0 -29 8
-37 25 -13 28 -26 32 -34 11z m30 -25 c12 -23 20 -27 41 -24 21 5 27 0 40 -31
19 -45 20 -42 -14 -56 -24 -9 -34 -9 -60 4 -35 19 -41 31 -11 23 24 -6 25 4 6
41 -17 35 -29 72 -22 72 3 0 12 -13 20 -29z"/>
<path d="M30 115 c0 -33 2 -35 35 -35 33 0 35 2 35 35 0 33 -2 35 -35 35 -33
0 -35 -2 -35 -35z m60 0 c0 -20 -5 -25 -25 -25 -20 0 -25 5 -25 25 0 20 5 25
25 25 20 0 25 -5 25 -25z"/>
<path d="M176 141 c-3 -4 6 -6 20 -3 16 3 30 -1 35 -9 7 -11 9 -10 9 4 0 12
-8 17 -29 17 -17 0 -32 -4 -35 -9z"/>
<path d="M258 143 c6 -2 18 -2 25 0 6 3 1 5 -13 5 -14 0 -19 -2 -12 -5z"/>
</g>
</svg>
